<?xml version="1.0"?>
<svg xmlns="http://www.w3.org/2000/svg" viewBox="-5 0 511 511.99984" width="512px" height="512px" class=""><g><path d="m63.152344 47.542969-57.128906-28.621094c-4.933594-2.464844-6.933594-8.464844-4.464844-13.398437 2.464844-4.933594 8.464844-6.933594 13.398437-4.464844l60.910157 30.511718c3.117187 1.246094 5.535156 4.03125 6.15625 7.585938l13.257812 74.644531h247.742188c5.539062 0 10.03125 4.492188 10.03125 10.03125 0 5.539063-4.492188 10.027344-10.03125 10.027344h-244.175782l41.585938 234.09375h32.292968c5.539063 0 10.03125 4.488281 10.03125 10.03125 0 5.539063-4.492187 10.027344-10.03125 10.027344h-28.730468l5.144531 28.949219c12.433594.449218 23.648437 5.671874 31.871094 13.894531 6.34375 6.34375 10.90625 14.476562 12.859375 23.578125h168.875c1.957031-9.101563 6.519531-17.234375 12.863281-23.578125 8.601563-8.605469 20.488281-13.925781 33.613281-13.925781s25.007813 5.320312 33.609375 13.925781c8.601563 8.601562 13.921875 20.484375 13.921875 33.609375s-5.320312 25.011718-13.921875 33.609375c-8.601562 8.605469-20.484375 13.925781-33.609375 13.925781s-25.011718-5.320312-33.613281-13.925781c-6.347656-6.347657-10.90625-14.480469-12.863281-23.578125h-168.875c-1.957032 9.097656-6.515625 17.230468-12.863282 23.578125-8.601562 8.605469-20.484374 13.925781-33.609374 13.925781s-25.011719-5.320312-33.613282-13.925781c-8.601562-8.601563-13.921875-20.484375-13.921875-33.609375s5.320313-25.007813 13.921875-33.609375c4.429688-4.429688 9.726563-7.988281 15.613282-10.398438-22.078126-124.304687-44.160157-248.609375-66.246094-372.914062zm189.816406 340.46875h170.371094c12.242187 0 22.402344-4.820313 30.175781-12.59375 8.097656-8.097657 13.421875-19.410157 15.585937-31.601563l31.769532-178.847656c.375-2.109375.558594-4.199219.558594-6.261719 0-10.644531-4.71875-20.90625-12.039063-28.898437-7.148437-7.804688-16.898437-13.542969-27.1875-15.371094-2.355469-.417969-4.726563-.636719-7.089844-.636719h-31.847656c-5.539063 0-10.03125 4.488281-10.03125 10.027344s4.492187 10.03125 10.03125 10.03125h31.847656c1.226563 0 2.445313.109375 3.644531.324219 5.9375 1.054687 11.644532 4.453125 15.898438 9.101562 4.082031 4.453125 6.710938 9.953125 6.710938 15.421875 0 .957031-.078126 1.898438-.242188 2.816407l-31.769531 178.847656c-1.464844 8.25-4.894531 15.734375-10.023438 20.863281-4.144531 4.144531-9.53125 6.714844-15.992187 6.714844h-170.371094c-5.539062 0-10.03125 4.492187-10.03125 10.03125 0 5.542969 4.492188 10.03125 10.03125 10.03125zm-40.121094-20.058594c-5.539062 0-10.03125 4.488281-10.03125 10.027344 0 5.539062 4.492188 10.03125 10.03125 10.03125 5.539063 0 10.03125-4.492188 10.03125-10.03125 0-5.539063-4.492187-10.027344-10.03125-10.027344zm170.296875-254.152344c-5.539062 0-10.027343 4.488281-10.027343 10.027344 0 5.542969 4.488281 10.03125 10.027343 10.03125 5.539063 0 10.03125-4.488281 10.03125-10.03125 0-5.539063-4.492187-10.027344-10.03125-10.027344zm-179.265625 64.386719c-11.15625 11.152344-16.730468 25.847656-16.730468 40.53125s5.574218 29.375 16.730468 40.53125l78.171875 78.167969c3.914063 3.917969 10.265625 3.917969 14.183594 0l78.171875-78.167969c11.152344-11.15625 16.730469-25.847656 16.730469-40.53125 0-14.6875-5.574219-29.378906-16.730469-40.53125-11.15625-11.15625-25.847656-16.734375-40.53125-16.734375-14.6875 0-29.378906 5.578125-40.53125 16.734375l-4.199219 4.199219-4.203125-4.199219c-11.152344-11.15625-25.84375-16.734375-40.53125-16.734375-14.683594 0-29.375 5.578125-40.53125 16.734375zm40.53125 3.328125c-9.558594 0-19.113281 3.617187-26.347656 10.851563-7.238281 7.238281-10.855469 16.789062-10.855469 26.351562 0 9.558594 3.617188 19.109375 10.855469 26.347656l71.078125 71.078125 71.082031-71.078125c7.234375-7.238281 10.851563-16.789062 10.851563-26.347656 0-9.5625-3.617188-19.113281-10.851563-26.351562-7.238281-7.234376-16.789062-10.851563-26.351562-10.851563-9.558594 0-19.109375 3.617187-26.347656 10.851563l-11.292969 11.292968c-3.914063 3.917969-10.265625 3.917969-14.183594 0l-11.289063-11.292968c-7.234374-7.234376-16.789062-10.851563-26.347656-10.851563zm184.238282 263.519531c-4.96875-4.972656-11.839844-8.046875-19.425782-8.046875-7.589844 0-14.457031 3.074219-19.429687 8.046875-4.972657 4.972656-8.046875 11.839844-8.046875 19.429688s3.074218 14.457031 8.046875 19.429687c4.972656 4.96875 11.839843 8.046875 19.429687 8.046875 7.585938 0 14.457032-3.078125 19.425782-8.046875 4.972656-4.972656 8.046874-11.839843 8.046874-19.429687s-3.074218-14.457032-8.046874-19.429688zm-261.824219 0c-4.96875-4.972656-11.839844-8.046875-19.425781-8.046875-7.589844 0-14.460938 3.074219-19.433594 8.046875-4.96875 4.972656-8.042969 11.839844-8.042969 19.429688s3.074219 14.457031 8.042969 19.429687c4.972656 4.96875 11.84375 8.046875 19.433594 8.046875 7.585937 0 14.457031-3.078125 19.425781-8.046875 4.972656-4.972656 8.046875-11.839843 8.046875-19.429687s-3.074219-14.457032-8.046875-19.429688zm0 0" fill-rule="evenodd" data-original="#000000" class="active-path" data-old_color="#F8F5F5" fill="#F9F6F6"/></g> </svg>
