<?xml version="1.0"?>
<svg xmlns="http://www.w3.org/2000/svg" viewBox="-58 0 511 512" width="512px" height="512px" class=""><g><path d="m10.527344 0h147.257812c5.539063 0 10.027344 4.488281 10.027344 10.027344 0 5.535156-4.488281 10.023437-10.027344 10.023437h-137.230468v456.933594l20.179687-21.144531c3.941406-4.15625 10.558594-4.175782 14.511719-.019532l30.226562 31.667969 30.210938-31.648437c3.9375-4.15625 10.554687-4.175782 14.507812-.019532l30.230469 31.667969 30.207031-31.648437c3.941406-4.15625 10.554688-4.175782 14.511719-.019532l30.226563 31.667969 30.207031-31.648437c3.941406-4.15625 10.558593-4.175782 14.511719-.019532l30.226562 31.667969 30.210938-31.648437c3.941406-4.15625 10.554687-4.175782 14.507812-.019532l20.203125 21.164063v-456.933594h-137.238281c-5.535156 0-10.027344-4.488281-10.027344-10.023437 0-5.539063 4.492188-10.027344 10.027344-10.027344h147.261718c5.535157 0 10.023438 4.488281 10.023438 10.027344v491.945312c0 5.539063-4.488281 10.027344-10.023438 10.027344-3.113281 0-5.894531-1.417969-7.734374-3.644531l-29.742188-31.160157-30.226562 31.671876c-3.953126 4.15625-10.570313 4.136718-14.507813-.019532l-30.210937-31.652344-30.226563 31.671876c-3.953125 4.15625-10.570313 4.136718-14.511719-.019532l-30.207031-31.652344-30.226563 31.671876c-3.953124 4.15625-10.570312 4.136718-14.511718-.019532l-30.207032-31.652344-30.226562 31.671876c-3.953125 4.15625-10.570312 4.136718-14.511719-.019532l-30.207031-31.652344-30.226562 31.671876c-3.808594 4-10.140626 4.160156-14.140626.351562-2.066406-1.964844-3.105468-4.601562-3.105468-7.246094l-.027344-491.945312c0-5.539063 4.488281-10.027344 10.027344-10.027344zm187.363281 0c-5.535156 0-10.027344 4.488281-10.027344 10.027344 0 5.535156 4.492188 10.023437 10.027344 10.023437 5.539063 0 10.023437-4.488281 10.023437-10.023437 0-5.539063-4.484374-10.027344-10.023437-10.027344zm-147.054687 334.917969h294.113281c5.535156 0 10.023437-4.488281 10.023437-10.027344 0-5.535156-4.488281-10.023437-10.023437-10.023437h-294.113281c-5.539063 0-10.027344 4.488281-10.027344 10.023437 0 5.539063 4.488281 10.027344 10.027344 10.027344zm126.671874 52.074219h167.441407c5.535156 0 10.023437-4.488282 10.023437-10.027344 0-5.535156-4.488281-10.023438-10.023437-10.023438h-167.441407c-5.535156 0-10.027343 4.488282-10.027343 10.023438 0 5.539062 4.492187 10.027344 10.027343 10.027344zm2.074219-249.546876h35.730469c5.539062 0 10.027344-4.488281 10.027344-10.023437 0-5.539063-4.488282-10.027344-10.027344-10.027344h-35.730469c-5.535156 0-10.027343 4.488281-10.027343 10.027344 0 5.535156 4.492187 10.023437 10.027343 10.023437zm0 104.152344h35.730469c5.539062 0 10.027344-4.492187 10.027344-10.027344 0-5.539062-4.488282-10.027343-10.027344-10.027343h-35.730469c-5.535156 0-10.027343 4.488281-10.027343 10.027343 0 5.535157 4.492187 10.027344 10.027343 10.027344zm0-52.074218h35.730469c5.539062 0 10.027344-4.492188 10.027344-10.027344s-4.488282-10.027344-10.027344-10.027344h-35.730469c-5.535156 0-10.027343 4.492188-10.027343 10.027344s4.492187 10.027344 10.027343 10.027344zm-128.746093-52.078126h89.222656c5.535156 0 10.027344-4.488281 10.027344-10.023437 0-5.539063-4.492188-10.027344-10.027344-10.027344h-89.222656c-5.539063 0-10.027344 4.488281-10.027344 10.027344 0 5.535156 4.488281 10.023437 10.027344 10.023437zm0 104.152344h89.222656c5.535156 0 10.027344-4.492187 10.027344-10.027344 0-5.539062-4.492188-10.027343-10.027344-10.027343h-89.222656c-5.539063 0-10.027344 4.488281-10.027344 10.027343 0 5.535157 4.488281 10.027344 10.027344 10.027344zm0-52.074218h89.222656c5.535156 0 10.027344-4.492188 10.027344-10.027344s-4.492188-10.027344-10.027344-10.027344h-89.222656c-5.539063 0-10.027344 4.492188-10.027344 10.027344s4.488281 10.027344 10.027344 10.027344zm290.757812-43.390626c0-11.980468-4.859375-22.828124-12.710938-30.679687-5.589843-5.589844-12.699218-9.664063-20.652343-11.542969v-12.75c0-5.539062-4.488281-10.027344-10.027344-10.027344-5.535156 0-10.023437 4.488282-10.023437 10.027344v12.75c-7.953126 1.882813-15.0625 5.953125-20.652344 11.542969-7.851563 7.851563-12.710938 18.699219-12.710938 30.679687 0 11.980469 4.859375 22.828126 12.710938 30.679688 7.851562 7.851562 18.699218 12.710938 30.679687 12.710938 6.445313 0 12.277344 2.609374 16.5 6.832031 4.222657 4.222656 6.835938 10.058593 6.835938 16.503906s-2.613281 12.277344-6.835938 16.5c-4.222656 4.222656-10.054687 6.835937-16.5 6.835937-6.445312 0-12.28125-2.613281-16.503906-6.835937-4.222656-4.21875-6.835937-10.054687-6.835937-16.5 0-5.539063-4.484376-10.027344-10.023438-10.027344s-10.027344 4.488281-10.027344 10.027344c0 11.980469 4.859375 22.828125 12.710938 30.679687 5.589844 5.589844 12.699218 9.660157 20.652344 11.542969v12.75c0 5.539063 4.488281 10.027344 10.027343 10.027344 5.535157 0 10.023438-4.488281 10.023438-10.027344v-12.753906c7.957031-1.878906 15.066406-5.949219 20.652343-11.542969 7.851563-7.851562 12.710938-18.699218 12.710938-30.679687s-4.859375-22.828125-12.710938-30.679688c-7.851562-7.851562-18.699218-12.707031-30.679687-12.707031-6.441406 0-12.277344-2.613281-16.5-6.835938-4.222656-4.222656-6.835937-10.054687-6.835937-16.5 0-6.445312 2.613281-12.28125 6.835937-16.5 4.222656-4.222656 10.058594-6.835937 16.5-6.835937 6.445313 0 12.28125 2.613281 16.503906 6.835937 4.222657 4.21875 6.832031 10.054688 6.832031 16.5 0 5.539063 4.492188 10.027344 10.027344 10.027344 5.539063 0 10.027344-4.488281 10.027344-10.027344zm0 0" fill-rule="evenodd" data-original="#000000" class="active-path" data-old_color="#FCFBFB" fill="#FFFFFF"/></g> </svg>
