<svg viewBox="0 -50 511.99831 511" xmlns="http://www.w3.org/2000/svg"><path d="m50.933594 366.457031h-24.238282c-7.351562 0-14.027343-3-18.863281-7.835937-4.832031-4.832032-7.832031-11.507813-7.832031-18.859375v-246.71875c0-7.351563 3-14.027344 7.832031-18.859375 4.835938-4.835938 11.511719-7.835938 18.863281-7.835938h44.363282c5.808594-10.691406 13.125-20.445312 21.660156-28.976562 22.777344-22.78125 54.25-36.871094 89.007812-36.871094 34.757813 0 66.230469 14.089844 89.007813 36.871094 8.535156 8.53125 15.851563 18.285156 21.660156 28.976562h44.363281c7.351563 0 14.027344 3 18.859376 7.835938 4.835937 4.832031 7.835937 11.507812 7.835937 18.859375v68.324219h67.703125c11.570312 0 22.585938 4.691406 31.453125 12.101562 9.03125 7.550781 15.917969 18.085938 18.847656 29.375 9.605469 37.066406 19.214844 74.128906 28.824219 111.191406.828125 3.195313 1.347656 6.214844 1.570312 9.042969.839844 10.570313-1.949218 19.753906-7.476562 27.039063-5.433594 7.160156-13.378906 12.222656-22.988281 14.710937-.289063.074219-.582031.148437-.871094.21875-1.84375 11.632813-7.359375 22.039063-15.320313 30.003906-9.886718 9.882813-23.539062 15.996094-38.621093 15.996094-15.078125 0-28.734375-6.113281-38.617188-15.996094-7.640625-7.640625-13.023437-17.53125-15.078125-28.59375h-214.550781c-2.054687 11.0625-7.441406 20.953125-15.078125 28.59375-9.886719 9.882813-23.539062 15.996094-38.621094 15.996094-15.082031 0-28.734375-6.113281-38.617187-15.996094-7.640625-7.640625-13.027344-17.535156-15.078125-28.59375zm130.792968-134.226562c-5.523437 0-10 4.476562-10 10 0 5.523437 4.476563 10 10 10 5.523438 0 10-4.476563 10-10 0-5.523438-4.476562-10-10-10zm-29.15625 6.742187c-1.824218 5.214844-7.382812 8.011719-12.417968 6.253906-18.039063-6.3125-34.203125-16.609374-47.433594-29.84375-22.78125-22.777343-36.871094-54.246093-36.871094-89.007812 0-13.976562 2.28125-27.417969 6.484375-39.980469h-35.636719c-1.816406 0-3.476562.753907-4.6875 1.960938-1.207031 1.210937-1.960937 2.871093-1.960937 4.6875v246.71875c0 1.816406.753906 3.476562 1.960937 4.683593 1.210938 1.210938 2.871094 1.960938 4.6875 1.960938h24.238282c2.050781-11.0625 7.4375-20.953125 15.078125-28.59375 9.882812-9.882812 23.535156-16 38.617187-16 15.082032 0 28.734375 6.117188 38.617188 16 7.640625 7.640625 13.027344 17.53125 15.078125 28.59375h185.078125v-253.363281c0-1.816407-.75-3.476563-1.960938-4.6875-1.207031-1.207031-2.867187-1.960938-4.683594-1.960938h-35.640624c4.207031 12.5625 6.484374 26.007813 6.484374 39.980469 0 34.761719-14.089843 66.230469-36.867187 89.007812-12.910156 12.910157-28.613281 23.027344-46.121094 29.375-5.113281 1.847657-10.425781-1.316406-12.210937-6.246093-1.882813-5.207031.527344-10.855469 5.386718-12.609375 14.71875-5.335938 27.917969-13.839844 38.769532-24.691406 19.152344-19.152344 30.996094-45.609376 30.996094-74.832032 0-29.226562-11.84375-55.683594-30.996094-74.835937-19.152344-19.148438-45.609375-30.996094-74.832032-30.996094-29.226562 0-55.683593 11.847656-74.835937 30.996094-19.148437 19.152343-30.996094 45.609375-30.996094 74.835937 0 29.222656 11.847657 55.679688 30.996094 74.832032 11.140625 11.140624 24.6875 19.785156 39.882813 25.085937 5.035156 1.761719 7.621093 7.460937 5.796874 12.675781zm12.464844-187.820312v75.226562c0 5.535156 4.488282 10.023438 10.023438 10.023438h45.421875c5.535156 0 10.023437-4.488282 10.023437-10.023438 0-5.539062-4.488281-10.027344-10.023437-10.027344h-35.398438v-65.199218c0-5.535156-4.488281-10.023438-10.023437-10.023438-5.535156-.003906-10.023438 4.484375-10.023438 10.023438zm314.816406 293.195312c3.636719-1.460937 6.582032-3.59375 8.628907-6.289062 2.566406-3.382813 3.839843-7.925782 3.402343-13.414063-.148437-1.855469-.457031-3.726562-.941406-5.597656l-15.046875-58.03125h-112.441406v85.390625h9.425781c2.054688-11.0625 7.4375-20.957031 15.078125-28.59375 9.886719-9.886719 23.539063-16 38.621094-16 15.078125 0 28.734375 6.113281 38.617187 16 7.164063 7.160156 12.34375 16.304688 14.65625 26.535156zm-28.832031-12.363281c-6.253906-6.253906-14.894531-10.121094-24.441406-10.121094s-18.191406 3.867188-24.445313 10.121094c-6.253906 6.257813-10.121093 14.898437-10.121093 24.445313 0 9.546874 3.867187 18.191406 10.121093 24.445312 6.257813 6.253906 14.898438 10.125 24.445313 10.125s18.1875-3.871094 24.445313-10.125c6.253906-6.253906 10.121093-14.898438 10.121093-24.445312 0-9.546876-3.867187-18.1875-10.125-24.445313zm-321.945312 0c-6.253907-6.253906-14.898438-10.121094-24.445313-10.121094s-18.1875 3.867188-24.445312 10.121094c-6.253906 6.257813-10.121094 14.898437-10.121094 24.445313 0 9.546874 3.867188 18.191406 10.121094 24.445312 6.257812 6.253906 14.898437 10.125 24.445312 10.125s18.191406-3.871094 24.445313-10.125c6.253906-6.253906 10.125-14.898438 10.125-24.445312 0-9.546876-3.871094-18.1875-10.125-24.445313zm234.378906-91.015625h107.246094l-8.585938-33.113281c-1.875-7.226563-6.386719-14.054688-12.347656-19.039063-5.421875-4.53125-11.960937-7.398437-18.605469-7.398437h-67.707031zm0 0" fill-rule="evenodd"/></svg>