<?xml version="1.0"?>
<svg xmlns="http://www.w3.org/2000/svg" height="512px" viewBox="0 -49 512 512" width="512px" class=""><g><path d="m502 325.28125h-3.550781v-87.007812c0-5.519532-4.480469-10-10-10-5.523438 0-10 4.480468-10 10v87.007812h-444.898438v-255.472656h444.898438v78.425781c0 5.523437 4.476562 10 10 10 5.519531 0 10-4.476563 10-10v-102.882813c0-25.007812-20.34375-45.351562-45.351563-45.351562h-394.195312c-25.007813 0-45.351563 20.34375-45.351563 45.351562v279.929688h-3.550781c-5.523438 0-10 4.476562-10 10v28.429688c0 28.011718 22.789062 50.796874 50.796875 50.796874h410.40625c28.007813 0 50.796875-22.785156 50.796875-50.796874v-28.429688c0-5.523438-4.476562-10-10-10zm-468.449219-279.929688c0-13.980468 11.375-25.351562 25.351563-25.351562h394.195312c13.980469 0 25.351563 11.371094 25.351563 25.351562v4.457032h-444.898438zm458.449219 318.359376c0 16.980468-13.816406 30.796874-30.796875 30.796874h-410.40625c-16.980469 0-30.796875-13.816406-30.796875-30.796874v-18.429688h472zm0 0" data-original="#000000" class="active-path" data-old_color="#000000" fill="#FFFFFF"/><path d="m183.609375 206.0625v35.859375h-70.738281c-5.523438 0-10 4.480469-10 10v41.289063c0 5.519531 4.476562 10 10 10h286.257812c5.523438 0 10-4.480469 10-10v-41.289063c0-5.519531-4.476562-10-10-10h-70.738281v-35.859375c0-14.21875-11.570313-25.789062-25.789063-25.789062h-4.375c7.753907-9.433594 12.414063-21.503907 12.414063-34.644532 0-30.128906-24.511719-54.640625-54.640625-54.640625s-54.640625 24.511719-54.640625 54.640625c0 13.140625 4.660156 25.207032 12.414063 34.644532h-4.375c-14.21875 0-25.789063 11.570312-25.789063 25.789062zm72.390625-95.074219c19.101562 0 34.640625 15.539063 34.640625 34.640625 0 19.101563-15.539063 34.644532-34.640625 34.644532s-34.640625-15.542969-34.640625-34.644532c0-19.101562 15.539063-34.640625 34.640625-34.640625zm133.128906 172.222657h-266.257812v-21.289063h266.257812zm-80.738281-77.148438v35.859375h-104.78125v-35.859375c0-3.191406 2.597656-5.789062 5.789063-5.789062h93.203124c3.191407 0 5.789063 2.597656 5.789063 5.789062zm0 0" data-original="#000000" class="active-path" data-old_color="#000000" fill="#FFFFFF"/><path d="m488.449219 203.234375c-4.171875 0-7.996094-2.695313-9.40625-6.617187-1.378907-3.824219-.25-8.21875 2.8125-10.898438 3.277343-2.871094 8.171875-3.257812 11.871093-.972656 3.515626 2.175781 5.359376 6.472656 4.511719 10.515625-.960937 4.578125-5.097656 7.972656-9.789062 7.972656zm0 0" data-original="#000000" class="active-path" data-old_color="#000000" fill="#FFFFFF"/></g> </svg>
